<svg width="50" height="39" viewBox="0 0 50 39" fill="none" xmlns="http://www.w3.org/2000/svg">
<path fill-rule="evenodd" clip-rule="evenodd" d="M4.80771 0C4.32828 0 3.86848 0.199008 3.52948 0.553243C3.19047 0.907478 3.00002 1.38792 3.00002 1.88889C3.00002 2.38985 3.19047 2.8703 3.52948 3.22453C3.86848 3.57877 4.32828 3.77778 4.80771 3.77778H48.1923C48.6718 3.77778 49.1315 3.57877 49.4706 3.22453C49.8096 2.8703 50 2.38985 50 1.88889C50 1.38792 49.8096 0.907478 49.4706 0.553243C49.1315 0.199008 48.6718 0 48.1923 0H4.80771ZM3.00002 17C3.00002 16.499 3.19047 16.0186 3.52948 15.6644C3.86848 15.3101 4.32828 15.1111 4.80771 15.1111H48.1923C48.6718 15.1111 49.1315 15.3101 49.4706 15.6644C49.8096 16.0186 50 16.499 50 17C50 17.501 49.8096 17.9814 49.4706 18.3356C49.1315 18.6899 48.6718 18.8889 48.1923 18.8889H4.80771C4.32828 18.8889 3.86848 18.6899 3.52948 18.3356C3.19047 17.9814 3.00002 17.501 3.00002 17ZM3.00002 32.1111C3.00002 31.6101 3.19047 31.1297 3.52948 30.7755C3.86848 30.4212 4.32828 30.2222 4.80771 30.2222H48.1923C48.6718 30.2222 49.1315 30.4212 49.4706 30.7755C49.8096 31.1297 50 31.6101 50 32.1111C50 32.6121 49.8096 33.0925 49.4706 33.4468C49.1315 33.801 48.6718 34 48.1923 34H4.80771C4.32828 34 3.86848 33.801 3.52948 33.4468C3.19047 33.0925 3.00002 32.6121 3.00002 32.1111Z" fill="black"/>
</svg>
